<?xml version="1.0" standalone="no"?>
<!DOCTYPE svg PUBLIC "-//W3C//DTD SVG 20010904//EN"
 "http://www.w3.org/TR/2001/REC-SVG-20010904/DTD/svg10.dtd">
<svg version="1.0" xmlns="http://www.w3.org/2000/svg"
 width="616.000000pt" height="616.000000pt" viewBox="0 0 616.000000 616.000000"
 preserveAspectRatio="xMidYMid meet">
<metadata>
Created by potrace 1.11, written by Peter Selinger 2001-2013
</metadata>
<g transform="translate(0.000000,616.000000) scale(0.100000,-0.100000)"
fill="#000000" stroke="none">
<path d="M2696 6148 c5 -8 -40 -13 -80 -8 -12 1 -16 -2 -11 -12 6 -10 5 -10
-4 -2 -14 13 -51 7 -51 -7 0 -5 -11 -7 -25 -5 -15 3 -25 0 -25 -7 0 -8 -3 -8
-8 -2 -11 16 -32 12 -48 -9 -8 -11 -14 -15 -14 -10 0 14 -31 14 -49 0 -11 -8
-13 -8 -7 2 4 6 2 12 -3 12 -6 0 -11 -8 -11 -17 0 -15 -2 -16 -10 -3 -7 11
-10 11 -10 2 0 -7 -4 -10 -10 -7 -5 3 -10 0 -10 -7 0 -8 -3 -9 -8 -3 -10 14
-32 17 -32 5 0 -6 -6 -9 -12 -7 -7 1 -12 -4 -10 -11 2 -10 -2 -10 -18 -2 -17
9 -20 8 -20 -7 0 -15 -2 -16 -10 -3 -8 12 -10 12 -10 1 0 -8 -7 -11 -20 -8
-11 3 -18 2 -15 -3 3 -4 -2 -11 -11 -14 -10 -4 -13 -2 -8 7 5 8 2 7 -9 -2 -9
-7 -17 -10 -17 -5 0 5 -7 0 -15 -10 -11 -14 -15 -16 -15 -5 0 12 -2 12 -9 0
-5 -8 -16 -11 -24 -8 -8 3 -23 -1 -34 -8 -10 -8 -28 -15 -41 -15 -12 0 -25 -6
-28 -14 -3 -8 -12 -12 -19 -10 -7 3 -16 0 -21 -7 -5 -8 -3 -10 6 -4 9 5 11 4
6 -4 -6 -9 -11 -9 -21 -1 -9 8 -15 8 -20 0 -3 -6 -11 -8 -16 -5 -5 4 -9 1 -9
-4 0 -6 -12 -11 -27 -11 -22 0 -25 -2 -13 -10 12 -8 11 -10 -7 -10 -13 0 -23
-6 -23 -12 0 -10 -2 -10 -9 0 -6 11 -10 10 -15 -4 -3 -9 -9 -14 -13 -11 -3 4
-14 -3 -24 -15 -11 -11 -19 -16 -19 -10 0 7 -5 12 -11 12 -5 0 -7 -4 -4 -10 3
-5 -3 -10 -13 -10 -11 0 -25 -7 -32 -15 -7 -9 -15 -13 -18 -11 -2 3 -11 -2
-19 -10 -8 -8 -20 -11 -26 -7 -7 4 -8 0 -3 -12 5 -14 4 -16 -8 -6 -11 9 -15 8
-20 -5 -5 -14 -9 -14 -24 -3 -9 7 -14 10 -10 5 9 -11 -16 -36 -36 -36 -9 0
-16 -5 -16 -11 0 -5 5 -7 12 -3 7 4 8 3 4 -4 -4 -6 -12 -9 -19 -6 -8 3 -25 -6
-39 -19 -14 -13 -32 -23 -39 -22 -8 2 -21 -5 -29 -13 -13 -14 -12 -15 5 -8 14
5 17 4 10 -3 -6 -6 -23 -12 -38 -13 -18 -2 -26 -7 -22 -16 2 -7 0 -10 -5 -7
-6 3 -13 0 -16 -9 -3 -8 -19 -18 -36 -21 -19 -5 -28 -12 -24 -21 3 -7 2 -13
-2 -13 -4 1 -16 1 -27 0 -14 -1 -16 -4 -8 -9 9 -5 3 -13 -20 -26 -23 -12 -27
-13 -13 -2 11 9 15 16 10 16 -15 0 -53 -47 -46 -56 4 -4 -2 -4 -12 0 -16 5
-17 4 -6 -9 11 -13 10 -14 -2 -10 -10 4 -24 -4 -37 -21 -12 -15 -21 -21 -21
-13 0 11 -2 11 -9 -1 -6 -8 -7 -18 -4 -24 3 -5 1 -6 -6 -2 -16 10 -43 -13 -37
-31 3 -8 1 -11 -4 -8 -6 3 -10 0 -10 -7 0 -9 -3 -9 -10 2 -8 13 -10 12 -10 -3
0 -10 -5 -15 -10 -12 -6 4 -9 1 -8 -7 2 -7 -2 -12 -9 -11 -7 2 -10 -3 -7 -11
3 -8 0 -17 -7 -22 -8 -5 -10 -3 -4 6 5 9 4 11 -3 6 -7 -4 -12 -14 -12 -22 0
-13 -12 -18 -32 -15 -4 0 -5 -5 -2 -13 3 -8 0 -17 -7 -22 -8 -5 -10 -3 -4 7 8
12 6 12 -9 0 -9 -8 -15 -20 -12 -27 3 -9 -4 -11 -22 -9 -15 2 -21 2 -14 -1 18
-8 15 -22 -8 -29 -11 -3 -20 -13 -20 -21 0 -10 -5 -12 -12 -8 -9 5 -8 2 1 -10
13 -15 12 -18 -7 -23 -12 -3 -22 -11 -22 -19 0 -7 -5 -16 -12 -20 -7 -5 -9 -2
-4 7 4 8 1 6 -7 -3 -8 -10 -17 -15 -21 -11 -4 4 -4 -1 0 -11 5 -13 4 -17 -3
-13 -6 4 -18 -9 -27 -28 -10 -20 -21 -33 -26 -30 -5 3 -12 0 -16 -6 -4 -8 -3
-9 4 -5 7 4 12 2 12 -3 0 -6 -7 -11 -16 -11 -8 0 -12 -4 -9 -10 3 -5 -1 -10
-10 -10 -10 0 -13 -5 -9 -11 4 -7 -4 -20 -17 -30 -20 -16 -22 -20 -9 -29 13
-8 13 -10 -2 -10 -9 0 -20 -5 -24 -12 -5 -7 -3 -8 6 -3 9 6 11 4 6 -4 -5 -7
-14 -10 -22 -7 -8 3 -11 0 -7 -10 3 -7 0 -14 -7 -14 -6 0 -8 -4 -5 -10 3 -5 1
-10 -5 -10 -6 0 -8 -5 -4 -12 5 -8 2 -9 -12 -4 -10 4 -15 4 -11 0 4 -4 1 -14
-6 -22 -10 -13 -9 -14 3 -7 12 7 13 6 3 -7 -7 -8 -9 -19 -5 -24 4 -4 -2 -2
-12 6 -13 10 -17 10 -12 2 4 -7 0 -19 -8 -28 -9 -8 -16 -23 -16 -32 0 -15 -2
-15 -10 -2 -6 9 -10 10 -10 3 0 -6 5 -15 10 -18 13 -8 1 -28 -14 -22 -6 3 -12
-6 -12 -19 -1 -13 -9 -31 -18 -39 -9 -9 -14 -21 -11 -26 4 -5 1 -9 -4 -9 -6 0
-10 -6 -9 -12 2 -7 -3 -12 -11 -10 -12 3 -12 1 0 -14 8 -10 9 -15 3 -11 -7 4
-14 0 -17 -8 -4 -10 -1 -12 11 -9 9 2 7 -1 -6 -7 -14 -8 -26 -28 -33 -56 -6
-23 -15 -40 -20 -37 -5 3 -9 -6 -9 -20 0 -14 -5 -26 -11 -26 -5 0 -7 5 -3 12
4 7 3 8 -5 4 -6 -4 -8 -13 -4 -19 10 -16 11 -47 2 -42 -10 7 -20 -25 -12 -37
3 -7 1 -8 -5 -4 -11 6 -16 -6 -13 -26 0 -5 -3 -8 -9 -8 -5 0 -7 -7 -4 -15 4
-8 1 -15 -6 -15 -10 0 -10 -3 0 -15 11 -13 10 -14 -4 -9 -14 5 -15 3 -7 -19 9
-22 8 -25 -6 -20 -12 5 -15 2 -10 -10 3 -8 1 -18 -6 -21 -8 -3 -8 -5 2 -5 8
-1 4 -8 -10 -21 -23 -18 -23 -19 -4 -20 18 -1 19 -1 3 -11 -10 -5 -18 -19 -18
-30 0 -11 -4 -18 -9 -15 -5 4 -7 -7 -5 -24 4 -21 1 -32 -10 -36 -11 -4 -13
-11 -7 -22 9 -19 -11 -66 -24 -54 -4 4 -2 -4 5 -17 6 -13 8 -21 2 -17 -6 3 -9
-7 -8 -24 0 -17 5 -30 10 -30 5 0 0 -8 -10 -17 -20 -18 -25 -48 -11 -70 9 -15
-9 -27 -25 -17 -10 6 -10 4 0 -8 8 -10 9 -19 3 -22 -13 -8 -10 -46 4 -46 5 0
3 -5 -5 -10 -13 -8 -13 -13 -2 -31 10 -16 10 -19 1 -13 -9 5 -11 2 -6 -9 3 -9
0 -18 -9 -21 -17 -7 -19 -42 -1 -49 8 -4 7 -6 -3 -6 -13 -1 -15 -34 -14 -234
0 -127 2 -236 3 -242 2 -5 2 -14 1 -20 -7 -31 3 -161 13 -174 9 -12 9 -13 0
-7 -17 9 -16 -4 1 -26 7 -10 17 -14 22 -10 4 4 2 -1 -5 -10 -11 -15 -11 -18 0
-18 11 0 11 -2 -1 -10 -13 -8 -13 -13 -2 -31 8 -11 9 -18 3 -14 -14 8 -14 -18
-1 -31 6 -6 12 -30 13 -52 1 -23 5 -42 9 -42 4 0 8 -5 8 -11 0 -5 -6 -7 -12
-3 -7 4 -6 -1 3 -12 9 -10 14 -25 11 -33 -3 -10 0 -11 9 -5 12 7 12 5 0 -9
-11 -14 -11 -17 0 -17 11 0 11 -2 -1 -10 -13 -9 -13 -10 0 -10 12 0 12 -2 2
-9 -11 -7 -11 -9 2 -14 9 -4 16 -1 16 5 0 6 3 9 6 5 3 -3 2 -12 -2 -19 -10
-16 -13 -48 -4 -48 3 0 6 -10 7 -22 1 -11 7 -24 13 -28 7 -4 11 -10 11 -14 -3
-22 0 -36 7 -32 5 3 9 -1 9 -9 0 -8 -5 -11 -11 -7 -6 3 -4 -5 5 -18 9 -14 15
-33 13 -43 -1 -9 1 -15 6 -12 4 3 11 -2 14 -11 4 -10 2 -13 -7 -9 -6 4 -4 0 6
-8 13 -11 15 -17 7 -22 -9 -6 -9 -9 -1 -15 7 -4 14 -20 15 -36 2 -16 9 -28 15
-27 6 2 8 -4 4 -14 -5 -13 -2 -15 11 -10 12 5 15 3 9 -6 -12 -19 -12 -36 -1
-44 7 -4 8 -1 3 7 -5 8 -4 11 3 7 5 -4 8 -16 5 -27 -3 -11 -1 -20 4 -20 5 0
10 -10 10 -22 1 -13 7 -24 13 -26 5 -2 8 -8 4 -13 -3 -5 0 -9 6 -9 6 0 8 -4 5
-10 -3 -5 0 -10 8 -10 10 0 13 -7 10 -19 -3 -12 3 -24 17 -34 15 -11 18 -16 8
-20 -11 -4 -11 -6 0 -6 7 -1 10 -5 7 -11 -3 -5 -1 -10 4 -10 6 0 11 -6 11 -12
1 -23 36 -88 44 -81 4 4 4 0 0 -10 -3 -10 -1 -17 6 -17 6 0 8 -5 5 -10 -3 -6
0 -13 9 -16 8 -3 12 -12 9 -20 -3 -8 0 -14 7 -14 6 0 8 -5 4 -12 -5 -8 0 -9
15 -5 18 4 20 3 10 -9 -11 -13 -6 -18 14 -15 5 1 6 -3 2 -9 -3 -5 -2 -10 2
-10 5 0 14 -10 22 -22 l14 -23 -24 20 -24 20 22 -26 c13 -14 23 -32 23 -40 0
-12 2 -12 10 1 8 12 10 11 10 -7 0 -12 10 -29 22 -37 15 -11 18 -16 8 -17 -9
0 -6 -5 8 -11 12 -6 22 -20 22 -30 0 -10 7 -21 15 -24 8 -4 12 -10 9 -15 -3
-5 5 -9 18 -10 13 0 17 -3 11 -6 -7 -2 -13 -9 -13 -14 0 -6 4 -7 10 -4 5 3 10
-3 10 -15 0 -12 5 -18 10 -15 6 3 10 -1 10 -9 0 -9 7 -16 16 -16 10 0 14 -5
10 -16 -3 -8 -2 -12 4 -9 6 3 10 1 10 -5 0 -6 5 -8 10 -5 6 3 10 -1 10 -9 0
-9 5 -16 10 -16 6 0 10 -6 10 -13 0 -7 8 -20 18 -28 9 -9 23 -25 31 -37 8 -11
23 -23 34 -26 14 -3 18 -10 13 -22 -6 -14 -4 -15 9 -4 9 7 15 9 14 4 -4 -22 2
-34 17 -34 8 0 12 -4 9 -10 -3 -5 -1 -10 5 -10 6 0 9 -4 6 -9 -3 -5 2 -8 12
-7 9 0 21 -9 27 -21 5 -13 16 -23 23 -23 7 0 10 -5 7 -10 -3 -6 0 -10 8 -10 8
0 21 -8 28 -17 12 -16 12 -17 -1 -8 -10 6 -9 4 2 -6 9 -9 14 -20 10 -25 -4 -5
2 -2 12 6 11 8 17 11 14 5 -3 -5 0 -15 7 -22 11 -10 15 -10 18 0 3 7 6 4 6 -6
1 -10 5 -15 11 -12 5 3 10 -1 10 -9 0 -9 6 -15 12 -13 7 1 12 -4 10 -12 -2 -9
3 -11 13 -7 9 3 14 2 10 -3 -7 -13 23 -41 44 -41 10 0 25 -8 32 -17 13 -17 13
-17 -6 -3 -15 11 -14 7 4 -13 26 -29 37 -35 25 -15 -4 7 2 4 14 -6 12 -11 22
-16 22 -12 0 4 6 1 14 -6 8 -7 12 -16 10 -20 -2 -4 1 -10 7 -14 8 -4 9 -3 5 4
-4 7 -2 12 3 12 6 0 11 -4 11 -10 0 -5 7 -10 16 -10 9 0 18 -9 21 -21 4 -16 8
-17 14 -7 7 10 9 11 9 0 0 -7 4 -10 10 -7 5 3 10 -1 10 -9 0 -14 12 -20 33
-17 4 0 7 -4 7 -9 0 -6 9 -10 21 -10 11 0 17 -5 14 -10 -3 -6 -1 -10 5 -10 6
0 8 -5 4 -11 -4 -7 0 -9 14 -5 13 5 22 1 26 -10 4 -10 12 -14 22 -10 12 5 15
2 10 -10 -5 -14 -4 -15 9 -4 11 9 15 9 15 1 0 -7 5 -9 12 -5 7 5 9 2 6 -8 -4
-8 0 -15 8 -15 7 0 11 5 8 11 -3 6 2 2 10 -8 9 -11 16 -14 16 -7 0 7 5 9 10 6
6 -4 8 -11 5 -16 -5 -7 31 -14 57 -10 4 0 5 -6 2 -14 -5 -11 -2 -13 12 -8 11
4 15 3 11 -4 -4 -6 0 -13 8 -17 8 -3 15 -1 15 5 0 6 5 7 10 4 6 -4 8 -11 5
-16 -4 -5 3 -9 14 -9 12 0 21 -4 21 -10 0 -5 9 -10 21 -10 11 0 18 -4 15 -8
-4 -7 19 -12 66 -15 9 -1 15 -3 13 -6 -8 -7 34 -33 44 -26 5 3 12 1 16 -4 3
-6 13 -7 22 -4 11 4 14 3 9 -5 -5 -8 1 -12 18 -12 14 0 29 1 32 3 3 1 10 -5
15 -15 5 -10 17 -14 29 -11 11 3 20 0 20 -6 0 -6 5 -11 11 -11 5 0 7 6 4 12
-4 7 -1 6 7 -3 7 -9 19 -14 26 -12 6 3 12 0 12 -6 0 -6 10 -11 23 -11 13 0 32
-6 42 -14 10 -7 26 -11 36 -9 9 3 30 -2 45 -10 31 -15 61 -16 83 -2 9 5 12 4
7 -3 -3 -6 -2 -13 3 -16 5 -4 12 2 14 11 4 17 5 17 6 1 0 -10 4 -18 9 -19 47
-5 72 -4 73 5 0 6 4 2 8 -8 4 -11 19 -20 34 -22 19 -2 25 1 20 9 -5 9 -3 9 8
2 16 -12 39 -13 56 -2 6 4 14 3 18 -3 4 -6 11 -8 16 -4 5 3 9 2 8 -3 -4 -20 2
-24 18 -12 9 8 14 10 11 4 -3 -5 1 -17 10 -24 14 -13 15 -13 10 6 -5 19 -4 20
19 8 14 -7 38 -11 55 -8 23 3 28 1 22 -9 -6 -11 -5 -11 9 0 9 8 21 11 27 7 5
-3 10 2 11 12 0 16 1 16 9 -2 6 -14 9 -15 10 -5 1 10 4 9 10 -5 8 -18 9 -18 9
-2 1 14 5 16 19 9 9 -5 23 -7 31 -4 8 2 11 0 7 -6 -9 -15 153 -15 172 0 13 11
14 11 8 0 -7 -11 -4 -11 13 0 17 11 25 11 42 0 12 -7 24 -11 27 -8 3 3 0 6 -6
6 -7 0 -12 4 -12 10 0 6 9 6 23 1 12 -4 35 -6 50 -4 21 3 27 0 21 -8 -4 -8 -3
-9 5 -5 6 4 9 12 6 17 -4 5 6 4 21 -1 19 -8 31 -7 42 2 10 8 13 9 9 1 -5 -7 0
-9 13 -6 11 3 20 9 20 14 0 5 8 9 18 9 15 0 15 2 2 11 -12 9 -11 10 5 4 36
-12 50 -13 64 -1 11 8 13 8 7 -1 -4 -8 -1 -13 9 -13 9 0 14 4 11 9 -4 5 4 7
15 4 15 -4 27 0 35 12 8 11 14 14 14 8 0 -12 25 -12 36 0 4 3 16 2 27 -4 14
-8 18 -8 13 0 -4 6 0 11 11 11 15 0 16 2 3 10 -9 6 -10 10 -3 10 6 0 14 -4 17
-8 6 -10 57 -9 74 1 7 5 10 13 6 18 -3 6 3 5 14 -2 17 -10 25 -10 47 5 18 12
24 13 19 5 -7 -12 -5 -12 9 -1 9 8 21 11 27 7 5 -3 10 2 10 12 0 15 2 16 10 3
9 -14 15 -7 11 14 -1 5 5 4 13 -4 12 -9 16 -10 16 0 0 7 7 10 16 6 8 -3 12 -2
9 4 -3 6 5 10 19 10 14 0 26 6 26 13 0 8 4 7 10 -3 8 -12 10 -12 10 -1 0 9 7
11 21 8 12 -3 22 0 26 9 3 8 9 11 14 8 5 -3 9 1 9 8 0 9 3 9 10 -2 7 -11 10
-11 10 -2 0 7 5 10 10 7 6 -3 10 -1 10 6 0 7 10 9 25 7 13 -3 22 -1 19 3 -7
11 26 26 54 23 15 -1 21 3 18 12 -3 8 2 11 15 9 10 -2 19 -1 19 3 0 9 49 32
68 32 7 0 10 5 7 11 -4 6 0 9 11 7 11 -2 18 2 17 9 -2 7 6 10 18 8 15 -3 19 0
15 11 -3 8 -2 13 2 10 5 -3 21 2 36 10 16 7 35 14 43 14 8 0 11 5 7 11 -4 8 0
8 15 0 17 -9 20 -9 15 3 -3 8 0 17 7 22 8 4 10 3 5 -4 -4 -7 -2 -12 3 -12 6 0
11 5 11 10 0 6 9 10 21 10 11 0 17 5 14 10 -3 6 3 10 15 10 12 0 18 5 15 10
-3 6 -1 10 5 10 6 0 8 5 4 13 -5 8 -2 8 9 -2 11 -9 17 -10 17 -2 0 6 7 11 15
11 8 0 15 6 15 14 0 18 27 29 34 13 2 -7 5 -4 5 6 1 10 6 15 11 12 6 -3 10 4
11 17 0 13 3 18 5 12 7 -16 54 6 54 24 0 7 5 10 10 7 6 -3 10 -2 10 4 0 6 7 7
17 4 11 -4 14 -3 9 5 -5 8 1 12 16 12 18 0 20 2 8 10 -13 8 -12 10 3 10 10 0
20 7 24 16 3 8 11 13 18 10 7 -2 21 5 32 16 10 12 12 18 4 13 -10 -6 -12 -4
-7 4 5 7 14 10 22 7 9 -3 11 0 7 11 -5 12 -3 14 7 8 10 -6 12 -4 7 8 -3 9 -1
19 5 23 7 4 8 3 4 -4 -4 -7 -1 -12 9 -12 9 0 13 5 10 10 -3 6 -1 10 5 10 6 0
8 4 5 10 -3 6 1 7 9 4 10 -4 16 -1 16 7 0 11 3 11 10 -1 8 -12 10 -11 10 7 0
13 5 22 13 20 6 -1 11 4 10 11 -3 11 9 16 29 13 4 0 5 5 2 13 -3 8 0 17 7 22
8 5 10 3 4 -6 -5 -9 -4 -11 3 -6 7 4 12 14 12 22 0 8 6 13 13 11 6 -1 11 4 10
11 -3 11 9 16 29 13 4 0 4 7 1 16 -4 11 -3 14 5 9 11 -6 17 5 13 26 0 5 2 7 7
7 19 -3 33 2 27 11 -3 6 4 10 16 10 16 0 20 5 16 20 -4 14 0 20 12 20 25 0 33
11 19 27 -8 11 -7 12 6 7 12 -5 16 0 17 22 0 16 3 24 6 17 3 -10 7 -10 18 0 7
7 11 15 8 19 -4 7 11 12 28 10 4 -1 5 9 2 21 -3 13 -1 17 4 11 6 -9 11 -8 21
2 9 10 10 14 1 14 -7 0 -2 8 9 19 12 10 22 23 22 30 0 6 3 10 8 10 4 -1 14 -1
22 0 13 1 13 2 0 11 -11 7 -11 10 -2 10 7 0 10 5 7 10 -3 6 1 13 9 16 9 3 16
12 16 20 0 8 8 14 18 14 14 0 15 2 2 10 -13 9 -8 14 12 11 4 0 5 9 3 20 -3 17
-1 19 10 9 10 -8 13 -8 11 2 -1 7 -5 18 -9 25 -4 6 -2 15 4 19 8 5 9 3 4 -6
-5 -8 -3 -11 6 -8 8 3 13 12 13 21 -1 9 2 14 7 11 5 -3 14 8 20 25 6 17 14 29
19 26 9 -6 32 44 25 56 -4 5 1 9 9 9 9 0 15 6 13 13 -1 6 4 11 11 9 10 -2 10
2 2 18 -8 16 -8 20 2 18 8 -2 12 5 10 16 -2 11 1 15 7 11 7 -3 11 2 11 14 0
10 6 22 13 24 9 4 8 8 -3 17 -13 10 -12 11 6 7 20 -4 24 1 25 46 0 9 4 15 10
12 5 -4 9 3 9 14 0 12 5 21 10 21 6 0 10 11 10 25 0 14 5 25 11 25 6 0 8 7 5
16 -3 8 -2 12 4 9 10 -6 13 3 13 37 0 10 3 15 8 13 4 -3 10 8 14 25 4 19 11
28 18 23 7 -4 5 2 -3 12 -10 13 -11 16 -2 11 10 -6 13 -2 10 15 -2 15 2 23 9
22 8 -2 10 4 6 14 -4 10 -2 14 5 9 7 -4 9 2 6 19 -3 15 2 32 10 40 7 8 12 28
11 45 -2 23 0 28 10 20 9 -7 11 -2 10 20 -1 17 2 30 6 30 5 0 5 7 2 17 -5 12
-3 14 7 8 8 -5 11 -3 8 6 -3 8 2 23 11 33 9 11 10 16 4 12 -7 -4 -13 -2 -13 3
0 6 4 11 8 11 5 0 9 7 9 15 0 8 -5 15 -10 15 -6 0 0 9 13 20 15 13 18 20 9 20
-11 0 -11 2 1 10 13 9 13 11 0 20 -12 8 -12 10 -1 10 11 0 11 3 0 17 -10 11
-10 14 -1 9 8 -5 12 0 12 14 0 14 4 19 13 14 7 -5 6 0 -3 11 -8 10 -10 16 -3
12 13 -8 12 30 -1 51 -5 8 -2 11 6 10 8 -2 12 4 10 16 -2 11 1 15 7 11 15 -9
14 8 -1 24 -11 11 -10 13 0 7 14 -8 12 19 -2 43 -6 10 -5 12 2 7 11 -7 17 17
13 51 -1 6 3 14 9 18 14 9 13 42 -2 48 -8 3 -6 6 5 6 9 1 17 6 17 11 0 6 -8
10 -17 11 -15 0 -15 2 2 9 13 6 15 9 5 9 -13 1 -13 2 0 11 12 8 12 10 -5 11
l-20 0 20 9 c11 5 15 9 10 9 -7 1 -8 29 -2 89 10 104 0 321 -15 340 -6 7 -7
12 -2 11 21 -4 26 2 14 16 -10 12 -10 15 1 16 8 0 5 4 -6 9 -16 7 -17 9 -3 9
17 1 15 34 -5 59 -7 9 -5 11 9 6 18 -5 18 -5 0 10 -11 9 -14 16 -8 16 7 0 12
5 12 11 0 5 -4 8 -8 5 -4 -2 -14 4 -21 16 -8 13 -8 18 -1 13 14 -9 9 27 -5 37
-6 5 -5 8 3 8 6 0 12 7 12 16 0 8 -5 12 -11 9 -6 -4 -5 2 2 13 11 18 10 24 -6
42 -10 11 -15 23 -12 27 4 3 1 13 -6 21 -9 13 -9 14 1 8 6 -4 12 -2 12 3 0 6
-6 11 -12 11 -10 0 -9 3 1 9 8 5 9 10 3 12 -6 2 -12 15 -14 29 -2 14 -7 31
-12 39 -6 9 -5 12 1 8 5 -3 9 4 8 15 -1 12 -8 24 -16 26 -11 3 -11 1 1 -7 9
-7 10 -11 3 -11 -17 0 -25 17 -13 25 8 5 8 11 0 20 -8 10 -8 15 1 20 8 6 8 10
-2 15 -7 5 -13 16 -14 27 -4 30 -17 53 -27 47 -6 -4 -7 0 -1 12 13 27 11 41
-12 59 -11 9 -14 14 -7 10 9 -5 8 5 -4 35 -9 22 -14 44 -10 47 3 3 -3 13 -15
21 -14 10 -17 18 -11 24 13 13 4 40 -11 31 -6 -4 -7 -1 -2 7 4 7 2 16 -6 20
-11 7 -15 19 -21 68 -1 6 -7 12 -14 12 -7 0 -11 8 -9 18 3 23 -14 54 -26 47
-5 -4 -9 -3 -8 2 3 20 -3 77 -8 66 -8 -21 -22 -15 -18 7 2 11 0 20 -6 20 -5 0
-9 9 -9 20 0 11 -4 20 -10 20 -5 0 -10 9 -10 21 0 11 -4 17 -10 14 -10 -6 -14
12 -11 50 2 15 0 17 -7 6 -11 -16 -21 -3 -17 22 3 13 0 15 -9 8 -9 -8 -12 -3
-12 17 1 16 -4 26 -12 24 -6 -1 -11 4 -10 10 2 7 -3 12 -10 10 -8 -1 -11 2 -8
7 4 5 1 13 -5 17 -8 5 -8 8 0 14 9 5 7 11 -5 21 -16 12 -17 12 -9 -1 7 -12 6
-13 -6 -2 -8 7 -15 17 -15 23 -1 5 -2 14 -3 20 0 5 -7 7 -13 3 -8 -5 -7 0 2
11 9 11 10 16 3 11 -8 -4 -13 -2 -13 4 0 6 -4 8 -10 5 -5 -3 -10 1 -10 9 0 9
-9 25 -20 36 -11 11 -20 27 -20 35 0 8 -4 15 -10 15 -5 0 -10 5 -10 11 0 5 5
7 12 3 7 -4 8 -3 4 5 -6 9 -11 9 -21 1 -12 -10 -13 -8 -10 10 3 18 2 20 -10
10 -13 -11 -15 -7 -15 21 0 26 -3 30 -10 19 -8 -12 -10 -11 -10 8 0 13 -6 22
-16 22 -8 0 -12 5 -9 10 6 9 -8 15 -29 11 -5 -1 -4 4 2 12 15 18 6 27 -27 28
-14 0 -20 3 -13 6 26 10 0 52 -35 54 -16 0 -16 1 2 9 17 7 17 9 3 9 -10 1 -18
6 -18 11 0 6 -7 10 -16 10 -10 0 -14 5 -10 16 3 8 2 13 -2 10 -5 -3 -14 4 -22
14 -8 10 -17 17 -22 14 -4 -3 -8 0 -8 6 0 14 -25 40 -39 40 -5 0 -13 5 -17 12
-4 7 -3 8 4 4 8 -5 10 -2 6 8 -3 9 -9 15 -12 14 -20 -2 -32 3 -27 11 3 5 -4
16 -15 24 -11 7 -17 16 -14 19 3 3 -3 5 -13 4 -11 0 -18 5 -17 17 1 9 -2 17
-6 17 -5 0 -11 -8 -13 -17 -4 -16 -5 -16 -6 1 -1 11 -6 16 -15 13 -11 -4 -13
-1 -9 10 5 12 3 14 -7 8 -10 -6 -12 -4 -7 9 4 10 3 15 -3 11 -6 -3 -10 -1 -10
5 0 6 -4 8 -10 5 -5 -3 -10 1 -10 10 0 9 -4 13 -10 10 -6 -3 -10 1 -10 9 0 9
-11 18 -25 22 -14 4 -24 9 -21 12 7 6 -36 38 -46 34 -5 -1 -8 3 -8 9 0 6 -7 8
-17 5 -10 -4 -14 -4 -11 0 10 9 -17 34 -36 34 -10 0 -16 9 -17 23 0 21 -1 21
-9 2 -7 -16 -9 -16 -9 -4 -1 19 -27 32 -43 22 -7 -3 -8 -1 -4 5 4 7 1 12 -9
12 -11 0 -15 5 -12 14 4 11 1 13 -10 9 -12 -5 -14 -3 -8 8 4 8 5 11 0 7 -10
-9 -65 19 -65 33 0 8 -6 7 -17 -2 -10 -7 -15 -10 -11 -5 7 8 -1 18 -36 46 -12
9 -17 10 -12 3 4 -7 2 -13 -3 -13 -6 0 -11 5 -11 10 0 6 -7 10 -15 10 -8 0
-15 5 -15 10 0 6 -9 10 -21 10 -11 0 -17 5 -14 10 4 6 -5 10 -20 10 -15 0 -24
4 -20 10 3 6 1 10 -4 10 -6 0 -11 -6 -12 -12 0 -7 -5 -3 -11 10 -6 12 -15 22
-20 22 -5 0 -7 -4 -4 -8 3 -5 -1 -9 -8 -9 -8 0 -12 9 -10 21 3 12 2 15 -2 9
-3 -7 -10 -13 -15 -13 -6 0 -7 5 -4 10 3 6 -3 10 -14 10 -12 0 -21 5 -21 10 0
6 -5 10 -11 10 -5 0 -7 -5 -3 -12 4 -7 3 -8 -4 -4 -7 4 -12 15 -12 24 0 13 -2
14 -9 3 -6 -9 -10 -10 -12 -2 -2 6 -18 12 -36 14 -17 1 -30 4 -28 7 2 3 -3 10
-10 17 -11 10 -15 10 -18 0 -3 -7 -6 -3 -6 7 -1 20 -1 20 -17 0 -8 -10 -13
-14 -11 -9 3 6 -1 15 -8 22 -11 10 -15 10 -18 0 -4 -9 -6 -9 -6 1 -1 6 -7 12
-14 12 -8 0 -28 7 -45 16 -30 14 -66 24 -104 27 -10 1 -18 8 -18 15 0 11 -3
12 -14 3 -16 -14 -42 -5 -50 16 -5 13 -9 13 -23 2 -12 -10 -15 -11 -9 -1 6 9
1 11 -18 8 -15 -3 -26 0 -26 6 0 6 -9 8 -20 5 -11 -3 -18 -1 -14 4 3 5 -2 9
-11 9 -10 0 -13 -4 -8 -12 4 -7 -6 -5 -21 6 -16 10 -25 13 -22 7 5 -7 1 -9 -8
-5 -9 3 -14 9 -12 13 3 4 -3 7 -12 8 -9 1 -34 2 -54 4 -21 1 -38 6 -38 11 0 4
-28 6 -62 5 -36 -2 -69 1 -77 7 -20 15 -93 17 -84 2 5 -8 3 -8 -8 0 -20 15
-61 16 -52 1 5 -9 3 -9 -8 -1 -20 15 -61 16 -52 1 5 -9 3 -9 -8 -1 -20 15 -61
16 -52 1 4 -8 1 -8 -9 1 -21 17 -241 16 -231 -2 5 -8 3 -8 -8 0 -21 15 -79 17
-97 2 -10 -9 -13 -9 -9 -1 5 8 -13 11 -67 11 -41 -1 -73 -5 -70 -10z m2249
-608 c3 -6 -1 -7 -9 -4 -18 7 -21 14 -7 14 6 0 13 -4 16 -10z m-2570 -5440 c3
-6 -1 -7 -9 -4 -18 7 -21 14 -7 14 6 0 13 -4 16 -10z"/>
</g>
</svg>
